PathFileType	4	(X/Y/Z)	C:/Users/opensim2020/Desktop/walking_exp_matlab/subject01_walking17_run.trc																																																																																																																																																																																					
DataRate	CameraRate	NumFrames	NumMarkers	Units	OrigDataRate	OrigDataStartFrame	OrigNumFrames																																																																																																																																																																																	
100	100	7	61	mm	100	336	87																																																																																																																																																																																	
Frame#	Time	LTHI			LKNE			RELB			STRN			RWRA			LSHO			RFRM			RUPA			RSHO			RASI			RBHD			RFIN			LFHD			RFHD			CLAV			LHEE			RWRB			LASI			LBHD			LWRA			LTIB			RTHI			LWRB			LTOE			RKNE			C7			LFRM			LFIN			LUPA			LELB			RTIB			RTOE			RBAK			RANK			T10			LPSI			LANK			RHEE			RPSI			*39			*40			*41			*42			*43			*44			*45			*46			*47			*48			*49			*50			*51			*52			*53			*54			*55			*56			*57			*58			*59			*60		
		X1	Y1	Z1	X2	Y2	Z2	X3	Y3	Z3	X4	Y4	Z4	X5	Y5	Z5	X6	Y6	Z6	X7	Y7	Z7	X8	Y8	Z8	X9	Y9	Z9	X10	Y10	Z10	X11	Y11	Z11	X12	Y12	Z12	X13	Y13	Z13	X14	Y14	Z14	X15	Y15	Z15	X16	Y16	Z16	X17	Y17	Z17	X18	Y18	Z18	X19	Y19	Z19	X20	Y20	Z20	X21	Y21	Z21	X22	Y22	Z22	X23	Y23	Z23	X24	Y24	Z24	X25	Y25	Z25	X26	Y26	Z26	X27	Y27	Z27	X28	Y28	Z28	X29	Y29	Z29	X30	Y30	Z30	X31	Y31	Z31	X32	Y32	Z32	X33	Y33	Z33	X34	Y34	Z34	X35	Y35	Z35	X36	Y36	Z36	X37	Y37	Z37	X38	Y38	Z38	X39	Y39	Z39	X40	Y40	Z40	X41	Y41	Z41	X42	Y42	Z42	X43	Y43	Z43	X44	Y44	Z44	X45	Y45	Z45	X46	Y46	Z46	X47	Y47	Z47	X48	Y48	Z48	X49	Y49	Z49	X50	Y50	Z50	X51	Y51	Z51	X52	Y52	Z52	X53	Y53	Z53	X54	Y54	Z54	X55	Y55	Z55	X56	Y56	Z56	X57	Y57	Z57	X58	Y58	Z58	X59	Y59	Z59	X60	Y60	Z60	X61	Y61	Z61
																																																																																																																																																																																								
66	0.65	1110.89771	658.35449	-589.44287	1177.84387	544.90662	-570.82111	925.1203	1030.46057	-126.53791	1050.60645	1165.04285	-427.12659	1126.51331	999.50873	-271.74323	956.14044	1362.27173	-566.2879	1031.17041	974.74835	-178.13849	918.64276	1157.96606	-145.74017	976.15076	1344.09448	-254.92526	953.95251	900.05157	-310.07516	912.22705	1582.09521	-315.80209	1201.55786	972.90558	-270.07477	986.05768	1641.40393	-456.01944	1015.18579	1648.453	-346.67642	1021.35706	1322.54187	-411.76193	830.28412	292.7518	-465.69754	1135.14868	951.90436	-241.72954	959.89374	910.6051	-522.49786	883.09955	1578.00964	-431.55463	900.69751	931.39728	-702.0545	1047.27527	422.19333	-575.51434	911.3949	559.61084	-267.75778	860.27686	915.30426	-743.10461	932.25702	141.64575	-531.78784	927.03491	400.0386	-297.21884	876.87878	1398.33545	-397.41232	814.69598	1028.45911	-749.93988	925.13141	864.87024	-738.46411	848.36627	1253.09509	-675.15698	764.18164	1144.82422	-736.23932	799.82172	276.79276	-293.19604	767.35913	37.14467	-363.34918	812.19702	1211.91687	-327.48236	660.32629	123.72115	-341.73785	807.9314	1118.84045	-411.87692	779.16266	921.02124	-482.88037	877.03412	279.6452	-522.20837	595.39905	119.37413	-388.80219	775.84039	921.71106	-341.52576	1972.98816	1023.9527	-3102.01563	2012.47986	1022.10962	-3140.80835	NaN	NaN	NaN	993.58423	1678.01624	-364.60635	NaN	NaN	NaN	NaN	NaN	NaN	NaN	NaN	NaN	NaN	NaN	NaN	NaN	NaN	NaN	NaN	NaN	NaN	NaN	NaN	NaN	NaN	NaN	NaN	NaN	NaN	NaN	NaN	NaN	NaN	NaN	NaN	NaN	NaN	NaN	NaN	NaN	NaN	NaN	NaN	NaN	NaN	NaN	NaN	NaN	NaN	NaN	NaN	NaN	NaN	NaN	NaN	NaN	NaN
67	0.66	1164.45837	676.33173	-588.31464	1235.15698	564.98798	-569.85956	981.09003	1035.21484	-132.35429	1094.1637	1170.96814	-431.42856	1179.2356	1023.37244	-284.64297	995.69537	1368.50989	-568.64178	1088.36755	987.66034	-190.31427	971.91736	1163.12146	-147.87726	1022.70734	1350.44238	-258.28784	1001.77124	902.78815	-310.34546	958.00671	1587.75977	-317.55417	1255.67383	1000.78394	-287.62463	1032.18408	1646.58679	-457.92145	1061.51465	1652.83667	-348.72943	1065.01343	1327.8822	-415.75848	917.44824	269.4541	-463.92752	1191.07031	974.42249	-258.15189	1006.50427	918.30603	-522.81488	928.36517	1584.48145	-433.40622	928.91663	941.27496	-713.01117	1115.49768	426.68207	-574.63928	944.79816	565.71558	-267.0842	886.91724	927.55627	-752.74976	1035.65161	131.67952	-530.19598	950.81848	402.6842	-296.75046	921.53711	1403.80225	-398.15125	843.17255	1041.74756	-754.31958	950.99847	874.94421	-751.64648	884.00916	1263.47986	-675.40106	795.73987	1157.58472	-735.37946	815.6908	286.54654	-292.19922	768.55035	37.18626	-363.02271	859.1261	1216.89368	-324.90753	671.79681	136.71083	-339.02753	853.78461	1123.11633	-411.01547	825.24957	925.00916	-481.49179	965.04846	262.78897	-520.77991	608.65802	138.23584	-386.00754	822.86041	924.56689	-339.5914	1973.20459	1023.53516	-3102.00366	2012.58777	1022.1684	-3140.70679	NaN	NaN	NaN	1040.42932	1682.85339	-366.87912	NaN	NaN	NaN	NaN	NaN	NaN	NaN	NaN	NaN	NaN	NaN	NaN	NaN	NaN	NaN	NaN	NaN	NaN	NaN	NaN	NaN	NaN	NaN	NaN	NaN	NaN	NaN	NaN	NaN	NaN	NaN	NaN	NaN	NaN	NaN	NaN	NaN	NaN	NaN	NaN	NaN	NaN	NaN	NaN	NaN	NaN	NaN	NaN	NaN	NaN	NaN	NaN	NaN	NaN
68	0.67	1215.73193	692.37421	-588.02972	1288.23572	581.61359	-569.15564	1036.28455	1040.80896	-137.8732	1137.68726	1177.54041	-435.98752	1228.70886	1047.15967	-296.68646	1035.55261	1374.99084	-571.01093	1143.43555	1001.4837	-201.71681	1024.50012	1169.69836	-150.24504	1068.65149	1357.03601	-262.18106	1049.70386	906.47717	-311.80881	1003.49567	1593.94312	-319.87549	1306.18921	1029.13928	-304.72995	1078.34204	1652.08887	-460.16034	1107.49121	1657.40918	-351.08496	1108.58496	1333.81396	-419.84271	1006.75262	247.0248	-462.34076	1244.04382	997.64191	-273.15399	1053.33411	925.65247	-522.86902	973.67328	1591.39917	-435.58456	958.87494	952.35327	-721.63275	1181.68726	429.15656	-574.25861	980.8288	571.48547	-266.18463	915.06879	939.99988	-759.72778	1139.52832	123.51425	-528.38702	975.59833	407.38599	-294.88599	966.1319	1409.62366	-399.07327	873.88446	1055.08655	-757.39844	978.84406	885.75067	-762.31598	920.65887	1274.21094	-675.88562	829.14716	1169.96497	-734.42529	835.81091	298.17609	-289.43146	770.02594	36.70173	-362.83224	906.26019	1222.16736	-322.33127	687.04102	150.67316	-335.24557	900.10492	1127.38196	-409.7887	871.64276	929.1333	-480.3891	1054.25208	245.87041	-519.54419	626.82092	157.40503	-382.09378	870.83704	928.01202	-337.97055	1973.0293	1023.34589	-3101.94873	2012.56018	1021.99011	-3140.6814	NaN	NaN	NaN	1087.25012	1688.4502	-369.1835	NaN	NaN	NaN	NaN	NaN	NaN	NaN	NaN	NaN	NaN	NaN	NaN	NaN	NaN	NaN	NaN	NaN	NaN	NaN	NaN	NaN	NaN	NaN	NaN	NaN	NaN	NaN	NaN	NaN	NaN	NaN	NaN	NaN	NaN	NaN	NaN	NaN	NaN	NaN	NaN	NaN	NaN	NaN	NaN	NaN	NaN	NaN	NaN	NaN	NaN	NaN	NaN	NaN	NaN
69	0.68	1264.62244	705.54132	-587.78918	1337.46838	593.51611	-569.13141	1090.10474	1047.396	-142.82095	1181.39868	1184.14417	-440.52283	1275.44775	1070.47961	-308.40073	1076.05591	1381.54578	-572.94574	1196.53198	1016.05725	-211.73566	1076.29968	1176.77832	-152.94398	1114.01953	1363.92651	-266.25278	1097.76831	912.04401	-312.96909	1048.78271	1600.11877	-322.48315	1353.33789	1057.50366	-321.10574	1124.35913	1657.57385	-462.4545	1153.55542	1662.1344	-353.45404	1152.08679	1340.07385	-423.88937	1097.96765	225.91788	-461.57132	1294.37561	1021.58075	-286.55695	1100.83789	932.29474	-522.97327	1019.00201	1598.45264	-438.25696	990.87976	962.7406	-728.15247	1246.60095	428.87637	-574.7251	1018.80682	576.85815	-265.13654	945.41211	951.94818	-764.55597	1243.28601	116.98784	-526.23999	1001.37646	414.26208	-292.06577	1010.11334	1415.14526	-400.68619	906.81519	1067.88879	-759.2785	1009.00348	896.25531	-770.90839	958.70251	1284.78577	-676.30664	864.62054	1181.87256	-733.45825	858.2807	309.88858	-286.0029	772.612	36.4394	-362.24835	953.10144	1227.63477	-320.43567	708.07007	164.16962	-329.564	946.62756	1131.45898	-408.08298	918.53766	933.55505	-479.36301	1145.12366	229.18787	-519.04663	651.03735	176.5594	-376.91721	919.38373	932.91022	-337.01959	1973.13135	1023.44293	-3101.87769	2012.49365	1021.87897	-3140.5957	NaN	NaN	NaN	1133.54944	1693.60266	-371.65402	NaN	NaN	NaN	NaN	NaN	NaN	NaN	NaN	NaN	NaN	NaN	NaN	NaN	NaN	NaN	NaN	NaN	NaN	NaN	NaN	NaN	NaN	NaN	NaN	NaN	NaN	NaN	NaN	NaN	NaN	NaN	NaN	NaN	NaN	NaN	NaN	NaN	NaN	NaN	NaN	NaN	NaN	NaN	NaN	NaN	NaN	NaN	NaN	NaN	NaN	NaN	NaN	NaN	NaN
70	0.69	1310.21484	713.58716	-586.69031	1383.30115	600.95361	-569.49847	1142.28247	1054.30261	-147.24126	1225.43042	1190.68079	-445.40735	1319.21191	1092.57703	-318.72809	1117.14197	1387.77344	-574.68835	1247.29858	1031.04993	-220.50691	1127.13367	1183.7345	-156.09375	1158.96521	1370.7749	-270.46713	1146.12659	918.50775	-313.41455	1093.62927	1606.01025	-325.50522	1397.28918	1084.4314	-335.91541	1170.28442	1662.81116	-464.94699	1199.30042	1666.65479	-355.97397	1195.44922	1346.46167	-427.95367	1190.04797	206.31154	-461.59399	1341.72461	1045.06848	-298.08435	1148.64868	938.51721	-523.24176	1064.15369	1605.17346	-441.20801	1025.69348	972.97449	-733.72217	1310.4425	426.03076	-575.88306	1057.75354	582.01965	-264.31403	978.33099	962.61395	-767.69397	1345.57068	111.82283	-524.06244	1029.05103	422.61267	-289.52966	1053.66541	1420.14502	-402.59073	941.62695	1079.60913	-760.44226	1041.41895	905.76373	-777.59192	997.77264	1294.75159	-676.56439	901.81354	1192.7804	-732.64703	883.66833	321.85181	-281.56439	776.90601	36.75562	-362.34979	999.49768	1233.28113	-319.47128	733.41589	175.15982	-323.17169	992.86884	1135.6814	-405.94415	966.04089	938.54089	-478.42041	1235.46082	214.55547	-519.57513	679.11487	193.2048	-370.56287	968.35333	938.86298	-337.27612	1973.04456	1023.43787	-3101.96484	2012.50781	1022.00769	-3140.62915	NaN	NaN	NaN	1179.89526	1698.65894	-374.09567	NaN	NaN	NaN	NaN	NaN	NaN	NaN	NaN	NaN	NaN	NaN	NaN	NaN	NaN	NaN	NaN	NaN	NaN	NaN	NaN	NaN	NaN	NaN	NaN	NaN	NaN	NaN	NaN	NaN	NaN	NaN	NaN	NaN	NaN	NaN	NaN	NaN	NaN	NaN	NaN	NaN	NaN	NaN	NaN	NaN	NaN	NaN	NaN	NaN	NaN	NaN	NaN	NaN	NaN
71	0.7	1353.79639	716.7052	-585.50891	1427.00708	603.7616	-570.38184	1193.04114	1061.52234	-150.91249	1269.77209	1197.02307	-450.55298	1360.54846	1112.68298	-327.96777	1158.25708	1393.11523	-576.5285	1295.97632	1045.69226	-227.72725	1176.83838	1190.16711	-159.73788	1203.61182	1376.9248	-275.11902	1194.49878	924.58984	-314.38715	1138.33899	1611.14978	-328.53601	1438.49365	1109.14514	-348.99411	1215.84937	1667.37573	-467.59268	1244.66443	1670.6095	-358.66696	1238.68262	1352.56458	-432.15466	1281.2417	189.62448	-463.45398	1386.50928	1066.87781	-308.02945	1196.23755	943.62042	-523.09393	1109.0686	1611.14868	-444.49899	1062.46265	981.60516	-737.82819	1372.94373	420.46185	-577.05164	1096.71472	587.84955	-263.26822	1013.68018	971.16187	-769.91174	1444.48486	107.77075	-522.05212	1058.9021	431.3468	-287.54474	1097.10107	1424.41882	-404.7652	978.06982	1089.63281	-761.30176	1076.78918	914.22321	-782.68463	1037.49475	1303.60168	-676.88263	939.93604	1202.28149	-731.62323	912.06201	332.5722	-277.25815	787.552	43.85201	-362.41772	1045.72986	1238.62769	-319.40927	760.72357	186.0768	-316.48865	1038.9176	1139.50378	-404.07889	1014.09625	943.74969	-477.80881	1325.84216	200.69728	-520.58893	705.85022	209.92856	-361.69046	1017.57483	945.18335	-337.50867	1973.07593	1023.58777	-3102.02368	2012.46106	1022.05475	-3140.69702	NaN	NaN	NaN	1226.07874	1703.4176	-376.55173	NaN	NaN	NaN	NaN	NaN	NaN	NaN	NaN	NaN	NaN	NaN	NaN	NaN	NaN	NaN	NaN	NaN	NaN	NaN	NaN	NaN	NaN	NaN	NaN	NaN	NaN	NaN	NaN	NaN	NaN	NaN	NaN	NaN	NaN	NaN	NaN	NaN	NaN	NaN	NaN	NaN	NaN	NaN	NaN	NaN	NaN	NaN	NaN	NaN	NaN	NaN	NaN	NaN	NaN
72	0.71	1395.77881	715.46289	-584.59161	1469.47729	602.16388	-571.47491	1241.71985	1067.43494	-154.13571	1314.38037	1203.02637	-455.75299	1400.41479	1129.89172	-335.40851	1199.19397	1397.35352	-578.51489	1342.26904	1058.70154	-233.76175	1225.45056	1196.10669	-163.57414	1248.19299	1382.12488	-279.85077	1243.03455	929.82196	-315.09143	1182.69604	1615.01868	-331.92212	1477.64502	1130.38916	-359.97726	1261.1355	1670.7688	-470.25928	1289.57483	1673.52148	-361.5444	1281.7688	1358.00122	-436.49326	1371.72266	176.07631	-464.67352	1428.83264	1085.93286	-316.41806	1244.1792	947.88788	-523.04974	1153.83459	1615.72009	-447.76208	1101.51794	988.82037	-741.04968	1434.5177	412.68628	-578.84955	1135.47937	593.74396	-262.03708	1052.01733	977.96191	-771.78497	1539.64087	105.11571	-521.01178	1091.57471	439.26083	-286.02829	1140.61633	1427.74817	-407.25085	1015.99011	1097.53906	-762.12354	1115.38184	921.11975	-786.15424	1077.72351	1310.90137	-677.42596	978.94055	1210.10193	-730.88971	943.68115	341.36288	-274.24728	804.04407	56.34175	-358.59998	1091.72766	1243.0968	-319.87381	785.3111	200.62114	-311.91934	1086.04895	1142.22375	-403.41083	1061.8667	948.72974	-476.99805	1413.93909	189.07137	-522.32025	732.40466	228.38084	-353.70288	1066.98523	951.63831	-338.05582	1973.0531	1023.77466	-3102.03394	2012.55359	1022.20062	-3140.77295	NaN	NaN	NaN	1271.88611	1707.36328	-379.12244	NaN	NaN	NaN	NaN	NaN	NaN	NaN	NaN	NaN	NaN	NaN	NaN	NaN	NaN	NaN	NaN	NaN	NaN	NaN	NaN	NaN	NaN	NaN	NaN	NaN	NaN	NaN	NaN	NaN	NaN	NaN	NaN	NaN	NaN	NaN	NaN	NaN	NaN	NaN	NaN	NaN	NaN	NaN	NaN	NaN	NaN	NaN	NaN	NaN	NaN	NaN	NaN	NaN	NaN
